<svg id="Layer_3" data-name="Layer 3" xmlns="http://www.w3.org/2000/svg" viewBox="0 0 72 72"><title>subbots-logo-rgb-svg-black-small</title><path d="M62.49,42.56a27.32,27.32,0,0,0-.13-13.63l2.72-1.06A30.22,30.22,0,0,0,56.4,13.75l-2.29,1.84A27.33,27.33,0,0,0,43.92,9.88h0L44.36,7h0a30.38,30.38,0,0,0-16.7,0h0l.44,2.88h0a27.31,27.31,0,0,0-10.5,6L15.31,14A30.13,30.13,0,0,0,6.85,28.22l2.71,1.07a27.47,27.47,0,0,0-.05,13.2L6.78,43.55a30.29,30.29,0,0,0,8.39,14.28L17.46,56A27.32,27.32,0,0,0,28,62.09l0,0h0L27.59,65v0a30.47,30.47,0,0,0,16.76,0v0l-.44-2.88h0a27.31,27.31,0,0,0,10.61-6.07l2.28,1.83a30.17,30.17,0,0,0,8.43-14.26ZM59,37.15A23,23,0,0,1,38.16,58.92c-.71.07-1.42.1-2.15.1s-1.44,0-2.15-.1A23,23,0,0,1,13,37.15c0-.38,0-.76,0-1.15s0-.77,0-1.15a23,23,0,0,1,46,0c0,.38,0,.76,0,1.15S59,36.77,59,37.15Z"/><path d="M57.36,33l-10.87-1.2h0a12,12,0,0,0-5.94-8.53h8.26V21.72H38.11l-.52-4.58h-3l-.52,4.58H23.37v1.53h8.26a12,12,0,0,0-5.94,8.53h0L14.83,33a19.78,19.78,0,0,0-.18,2.68L16.16,35a8.92,8.92,0,0,1,7,0l1.26.53a8.69,8.69,0,0,0,1.18.41h.07l.3.08a8.88,8.88,0,0,0,3.84,0l.83-.22.67-.28L32.52,35a8.84,8.84,0,0,1,3.07-.69h1a8.84,8.84,0,0,1,3.06.69l1.26.53.67.28.83.22a8.88,8.88,0,0,0,3.84,0l.31-.08h.06a8.24,8.24,0,0,0,1.18-.41L49.08,35a8.92,8.92,0,0,1,7,0l1.51.64A23.65,23.65,0,0,0,57.36,33ZM31,29.14c-.81,1.41-1.9,2.3-2.43,2s-.3-1.69.51-3.1,1.9-2.29,2.43-2S31.77,27.74,31,29.14Zm12.69,2c-.53.31-1.62-.58-2.43-2s-1-2.79-.5-3.09,1.61.58,2.42,2S44.18,30.82,43.65,31.13Z"/><path d="M57.44,38.35a21.15,21.15,0,0,1-1.12,4.71l-.24-.1a8.89,8.89,0,0,0-6.94,0l-1.27.54a8.88,8.88,0,0,1-5.31.5,8.62,8.62,0,0,1-1.64-.5L39.66,43a8.92,8.92,0,0,0-6.95,0l-1.26.54a8.7,8.7,0,0,1-1.93.56,8.92,8.92,0,0,1-5-.56L23.24,43a8.92,8.92,0,0,0-6.95,0l-.23.1a20.57,20.57,0,0,1-1.12-4.72l.08,0,1.27-.53a8.92,8.92,0,0,1,7,0l1.26.53A9.39,9.39,0,0,0,26,38.8a8.93,8.93,0,0,0,5.42-.49l1.26-.53a8.92,8.92,0,0,1,6.95,0l1.26.53a8.83,8.83,0,0,0,5,.56,8.69,8.69,0,0,0,1.91-.56l1.27-.53a8.89,8.89,0,0,1,6.94,0Z"/><path d="M55.17,45.68A21.11,21.11,0,0,1,52,50.21a9.06,9.06,0,0,0-2.85.68l-1.27.54a8.92,8.92,0,0,1-6.95,0l-1.26-.54a8.92,8.92,0,0,0-6.95,0l-1.26.54a8.92,8.92,0,0,1-6.95,0l-1.26-.54a9.2,9.2,0,0,0-2.85-.68,21.11,21.11,0,0,1-3.18-4.53,8.94,8.94,0,0,1,6,.33l1.26.54a8.92,8.92,0,0,0,7,0L32.71,46l.06,0,.14-.05.13-.06a8.91,8.91,0,0,1,6.11-.06l.14,0,.14.05.23.09,1.26.54a8.92,8.92,0,0,0,6.95,0L49.14,46A8.94,8.94,0,0,1,55.17,45.68Z"/><path d="M44.55,55.48a21.41,21.41,0,0,1-16.72,0,8.75,8.75,0,0,0,3.62-.7l1.26-.53a8.92,8.92,0,0,1,6.95,0l1.26.53A8.79,8.79,0,0,0,44.55,55.48Z"/><path d="M41.59,35.84c-.24-.08-.49-.18-.72-.28L39.6,35a8.74,8.74,0,0,0-3-.69,8.84,8.84,0,0,1,3.06.69l1.26.53Z"/><path d="M42.42,36.06,42,36l-.44-.12Z"/></svg>