<?xml version="1.0" standalone="no"?>
<!DOCTYPE svg PUBLIC "-//W3C//DTD SVG 20010904//EN"
 "http://www.w3.org/TR/2001/REC-SVG-20010904/DTD/svg10.dtd">
<svg version="1.0" xmlns="http://www.w3.org/2000/svg"
 width="900.000000pt" height="900.000000pt" viewBox="0 0 900.000000 900.000000"
 preserveAspectRatio="xMidYMid meet">
<metadata>
Created by potrace 1.11, written by Peter Selinger 2001-2013
</metadata>
<g transform="translate(0.000000,900.000000) scale(0.100000,-0.100000)"
fill="#000000" stroke="none">
<path d="M4347 8624 c-1 -1 -60 -5 -132 -9 -71 -3 -132 -8 -135 -10 -3 -2 -30
-6 -60 -9 -151 -14 -293 -40 -513 -93 l-148 -35 6 -42 c4 -22 8 -57 11 -76 3
-19 9 -60 14 -90 11 -60 22 -144 24 -173 1 -15 -23 -27 -124 -61 -443 -151
-875 -400 -1234 -712 l-71 -61 -154 124 -154 124 -26 -23 c-71 -62 -227 -229
-316 -338 -38 -47 -72 -87 -75 -90 -30 -27 -243 -338 -305 -445 -97 -166 -180
-330 -247 -490 -59 -140 -82 -197 -83 -205 -1 -3 -25 -77 -53 -164 -29 -88
-51 -166 -50 -174 3 -13 244 -116 334 -143 31 -9 32 -10 22 -52 -5 -23 -11
-50 -13 -60 -2 -10 -6 -26 -9 -35 -3 -9 -8 -30 -11 -47 -2 -16 -7 -39 -9 -50
-2 -11 -7 -40 -11 -65 -4 -25 -9 -52 -10 -60 -2 -8 -6 -44 -10 -80 -4 -36 -9
-73 -11 -83 -8 -44 -18 -267 -18 -407 1 -218 13 -392 39 -550 3 -14 7 -43 11
-65 3 -22 16 -89 29 -150 13 -60 23 -111 22 -111 -1 -1 -73 -30 -160 -63 -187
-73 -207 -82 -207 -91 0 -34 126 -412 174 -525 90 -208 157 -341 270 -539 45
-78 119 -191 128 -194 4 -2 8 -9 8 -14 0 -11 180 -256 211 -288 8 -8 25 -28
37 -45 64 -82 304 -335 319 -335 4 0 22 12 38 28 17 15 55 46 85 69 30 23 64
50 75 60 41 36 104 83 112 83 4 0 24 -15 43 -33 74 -70 266 -220 383 -301 276
-190 580 -343 900 -452 56 -20 105 -38 108 -42 6 -6 -2 -87 -15 -148 -2 -12
-7 -45 -11 -75 -4 -30 -10 -70 -14 -89 -17 -82 -17 -82 104 -113 100 -26 199
-48 280 -62 17 -3 37 -8 45 -10 8 -2 35 -6 60 -9 25 -3 56 -8 69 -11 13 -2 49
-7 80 -10 31 -3 70 -8 86 -10 183 -24 602 -24 835 1 85 8 201 24 235 30 11 2
45 8 75 14 86 15 113 20 140 26 14 3 36 8 50 10 29 6 214 55 218 59 1 1 -7 65
-19 141 -11 76 -24 164 -29 194 -4 30 -5 58 -1 61 3 3 51 20 106 38 446 147
877 395 1259 724 l79 68 31 -29 c17 -16 86 -73 154 -127 l122 -97 79 78 c350
352 677 827 848 1234 8 19 24 54 34 78 65 142 197 547 184 560 -4 4 -86 39
-184 77 -128 51 -177 74 -175 85 1 8 9 47 18 85 58 272 80 485 81 785 0 181
-11 426 -20 440 -2 3 -6 34 -10 70 -3 36 -10 83 -15 105 -5 22 -11 58 -15 80
-3 22 -18 94 -33 161 l-28 120 179 69 c99 38 181 74 183 80 9 23 -156 492
-205 582 -5 10 -33 68 -62 128 -87 183 -210 384 -380 625 -89 126 -244 305
-394 455 -137 138 -139 139 -156 123 -8 -7 -59 -49 -114 -92 -55 -44 -119 -95
-141 -113 -35 -28 -44 -31 -55 -21 -93 90 -321 259 -492 364 -67 41 -129 79
-137 84 -8 5 -87 45 -175 89 -175 87 -306 142 -460 193 -94 31 -119 44 -110
58 3 5 40 248 52 336 4 37 2 42 -19 48 -50 13 -275 65 -308 71 -19 3 -42 8
-50 10 -8 2 -31 7 -50 10 -19 3 -46 7 -60 10 -74 13 -217 29 -375 41 -78 6
-423 12 -428 8z m368 -988 c137 -9 295 -31 425 -58 30 -6 60 -12 66 -14 50 -9
198 -52 284 -80 352 -119 684 -298 965 -523 39 -30 76 -60 84 -66 7 -5 84 -80
170 -165 153 -151 275 -293 362 -422 23 -35 45 -65 48 -68 3 -3 13 -16 21 -30
8 -14 38 -65 68 -114 120 -198 240 -475 311 -717 22 -75 42 -150 44 -165 3
-16 10 -49 15 -74 6 -25 13 -63 16 -85 4 -22 11 -65 16 -95 21 -127 33 -284
33 -450 1 -115 -9 -313 -17 -357 -2 -10 -7 -45 -11 -78 -12 -95 -12 -98 -25
-161 -80 -397 -207 -721 -425 -1082 -168 -279 -463 -602 -757 -829 -397 -308
-914 -530 -1413 -607 -161 -25 -326 -38 -485 -39 -106 0 -311 10 -350 18 -8 2
-43 6 -75 10 -33 4 -78 11 -100 15 -22 5 -60 12 -85 15 -124 18 -445 114 -600
180 -162 68 -430 207 -438 227 -2 4 -8 8 -14 8 -5 0 -55 31 -111 69 -518 354
-927 862 -1157 1440 -86 219 -157 479 -185 686 -3 22 -8 51 -10 65 -6 30 -14
114 -20 195 -7 87 -7 360 0 430 22 244 35 330 80 520 196 828 744 1561 1489
1989 295 170 655 306 961 361 158 29 254 41 400 51 55 3 101 7 102 8 4 3 229
-2 318 -8z"/>
<path d="M4309 7076 c-2 -3 -9 -49 -14 -101 -3 -33 -8 -71 -10 -85 -2 -14 -7
-54 -10 -90 -4 -36 -10 -94 -15 -130 -5 -36 -12 -96 -15 -135 -4 -38 -9 -73
-11 -77 -2 -3 -320 -7 -707 -7 -386 0 -713 0 -727 0 l-26 -1 1 -105 0 -105
559 0 560 0 -60 -36 c-166 -99 -298 -225 -462 -439 -12 -16 -76 -124 -110
-185 -48 -89 -118 -276 -148 -397 -15 -62 -30 -111 -33 -110 -7 1 -156 -13
-184 -18 -9 -2 -50 -6 -90 -10 -39 -4 -79 -8 -87 -10 -8 -1 -51 -6 -94 -10
-43 -4 -86 -8 -95 -10 -9 -2 -48 -6 -86 -10 -39 -3 -81 -8 -95 -10 -14 -2 -54
-7 -90 -10 -36 -4 -72 -9 -80 -10 -8 -2 -50 -6 -93 -10 -43 -3 -86 -8 -95 -10
-9 -1 -51 -6 -92 -10 -41 -4 -82 -8 -90 -10 -8 -1 -46 -6 -85 -9 -97 -9 -122
-15 -122 -29 -1 -7 -4 -41 -7 -77 -13 -154 -16 -270 -7 -270 5 0 68 25 140 55
115 49 235 88 305 101 85 15 165 21 256 19 91 -2 132 -7 245 -29 63 -12 127
-35 275 -96 91 -37 192 -76 225 -86 70 -21 58 -18 115 -28 25 -5 54 -10 65
-13 51 -12 270 -9 351 4 125 20 176 36 375 118 174 72 293 107 419 124 69 9
278 7 320 -2 14 -4 41 -9 60 -11 67 -10 206 -55 325 -107 158 -68 213 -87 315
-108 103 -22 136 -25 265 -25 198 0 304 24 545 123 279 115 360 135 570 135
184 1 358 -37 525 -114 22 -10 58 -25 80 -34 22 -10 48 -21 58 -27 13 -7 17
-5 18 8 5 74 -15 340 -27 352 -6 6 -23 9 -99 16 -33 3 -73 7 -90 9 -16 2 -59
7 -95 10 -36 4 -81 9 -100 11 -19 2 -60 7 -90 10 -30 3 -71 8 -90 10 -19 2
-60 7 -90 10 -30 3 -71 8 -90 10 -19 2 -60 7 -90 10 -30 3 -71 7 -90 10 -70 9
-154 18 -275 30 -38 3 -77 8 -85 10 -8 2 -49 7 -90 10 -107 8 -104 7 -119 78
-18 87 -67 237 -109 332 -38 87 -137 266 -163 293 -8 10 -20 25 -25 33 -5 9
-25 36 -44 60 -102 126 -224 236 -365 327 l-79 52 557 0 557 0 0 105 0 105
-32 1 c-18 0 -347 0 -730 0 -642 1 -698 2 -699 17 0 10 -2 26 -4 37 -2 11 -7
47 -10 80 -4 33 -8 71 -10 85 -2 14 -6 52 -9 84 -3 33 -11 98 -16 145 -6 47
-13 104 -16 125 -2 21 -7 42 -9 46 -3 5 -401 11 -406 6z m-427 -1221 c44 -18
45 -137 3 -254 -111 -308 -382 -550 -434 -389 -39 124 87 411 250 570 76 74
130 96 181 73z m1329 4 c190 -65 443 -544 352 -667 -65 -88 -217 25 -361 268
-50 85 -94 227 -94 302 1 55 15 86 45 98 12 5 22 9 23 9 1 1 16 -4 35 -10z"/>
<path d="M2217 4354 c-1 -1 -33 -4 -72 -7 -104 -9 -245 -48 -380 -106 -66 -28
-125 -55 -132 -59 -11 -7 -6 -74 12 -162 3 -14 8 -38 10 -55 23 -128 109 -425
124 -425 5 0 38 11 73 24 203 76 427 98 633 62 116 -21 183 -42 358 -114 183
-76 211 -85 362 -117 17 -4 84 -9 150 -12 209 -9 357 21 598 123 286 122 464
155 701 131 107 -11 261 -52 350 -92 265 -119 401 -155 611 -160 225 -6 329
17 590 125 244 101 365 130 555 133 147 1 324 -31 457 -85 l60 -24 29 85 c15
47 29 91 30 96 2 6 12 48 24 95 29 111 28 109 48 225 28 157 37 141 -113 203
-126 52 -233 86 -305 97 -203 31 -360 25 -529 -20 -50 -14 -166 -56 -259 -94
-257 -107 -375 -132 -587 -126 -77 2 -153 6 -170 10 -101 20 -210 57 -355 117
-311 130 -501 157 -794 112 -70 -11 -187 -50 -333 -112 -248 -105 -364 -131
-568 -127 -77 2 -153 5 -170 8 -91 15 -113 21 -179 42 -39 12 -84 28 -101 35
-16 7 -43 19 -60 26 -268 114 -389 144 -588 149 -42 0 -78 0 -80 -1z"/>
<path d="M2090 3215 c-41 -7 -94 -18 -117 -25 l-42 -13 36 -66 c83 -152 247
-384 355 -504 34 -37 51 -48 83 -53 169 -22 228 -39 420 -119 193 -80 274
-107 360 -120 92 -14 128 -17 213 -18 87 0 207 9 222 18 3 2 21 6 40 9 42 6
162 42 208 62 203 88 248 106 332 129 120 33 138 36 295 40 211 6 337 -20 577
-121 172 -72 218 -89 308 -108 145 -32 259 -38 410 -22 139 15 219 39 460 141
133 56 254 92 338 101 26 3 56 7 67 9 11 2 23 4 27 4 5 1 74 79 147 166 67 81
221 317 275 422 l16 32 -39 11 c-111 30 -201 39 -346 35 -175 -5 -301 -31
-440 -90 -337 -144 -465 -175 -686 -169 -121 4 -314 41 -384 74 -131 61 -330
136 -410 154 -112 26 -140 29 -275 30 -234 2 -308 -15 -597 -135 -225 -94
-385 -128 -570 -123 -176 5 -303 37 -524 130 -170 71 -249 97 -369 119 -70 13
-315 13 -390 0z"/>
<path d="M4468 2105 c-2 -1 -34 -5 -73 -9 -134 -12 -233 -40 -452 -132 -201
-83 -291 -107 -459 -120 -49 -3 -90 -7 -91 -9 -5 -3 183 -73 267 -99 113 -34
321 -83 390 -91 30 -4 57 -8 60 -10 3 -2 44 -7 90 -10 47 -4 94 -9 105 -11 25
-6 395 -5 455 0 92 8 172 19 270 36 30 6 69 13 85 15 114 20 406 109 505 153
l45 21 -55 1 c-30 1 -64 3 -75 5 -11 2 -40 6 -65 9 -114 14 -180 35 -400 126
-137 57 -229 87 -324 106 -57 11 -270 26 -278 19z"/>
</g>
</svg>
