<?xml version="1.0" encoding="utf-8"?>
<!-- Generator: Adobe Illustrator 23.0.2, SVG Export Plug-In . SVG Version: 6.00 Build 0)  -->
<svg version="1.1" id="Layer_2" xmlns="http://www.w3.org/2000/svg" xmlns:xlink="http://www.w3.org/1999/xlink" x="0px" y="0px"
	 viewBox="0 0 216 216" style="enable-background:new 0 0 216 216;" xml:space="preserve">
<style type="text/css">
	.st0{fill:none;stroke:#FFFFFF;stroke-width:0.5;stroke-miterlimit:10;}
	.st1{fill:#FED136;}
</style>
<g>
	<path class="st1" d="M194.85,129.49c1.71-6.88,2.61-14.08,2.61-21.49c0-8.02-1.06-15.79-3.04-23.18l8.9-3.47
		c-5.03-18.03-15.04-33.98-28.44-46.28l-7.52,6.02c-9.53-8.46-20.89-14.92-33.4-18.7c-0.05-0.01-0.09-0.03-0.14-0.04h0.14l1.44-9.44
		l0.01-0.04c-8.7-2.5-17.88-3.84-27.38-3.84s-18.68,1.34-27.38,3.84l0.01,0.04l1.44,9.44h0.14c-0.05,0.01-0.09,0.03-0.14,0.04
		C69.14,26.31,57.42,33.09,47.68,42l-7.49-6C27,48.43,17.22,64.46,12.43,82.51l8.91,3.48c-1.79,7.04-2.74,14.42-2.74,22.01
		c0,7.33,0.88,14.46,2.56,21.28l-8.93,3.48c4.68,18.13,14.36,34.24,27.48,46.79l7.5-6c9.77,9.07,21.58,15.98,34.65,19.98
		c0.06,0.02,0.11,0.03,0.17,0.05h-0.17l-1.44,9.43l-0.01,0.05c8.77,2.55,18.03,3.91,27.62,3.91c9.48,0,18.64-1.33,27.32-3.82
		l-0.01-0.05l-1.44-9.44h-0.17c0.06-0.02,0.11-0.03,0.17-0.05c13.11-3.95,24.96-10.83,34.77-19.89l7.49,6
		c13.17-12.52,22.89-28.62,27.61-46.75L194.85,129.49z M183.4,111.78c-1.85,37.58-31.19,67.93-68.32,71.36
		c-2.32,0.22-4.67,0.33-7.05,0.33c-2.38,0-4.73-0.11-7.05-0.33c-37.14-3.43-66.48-33.78-68.33-71.36c-0.07-1.25-0.1-2.51-0.1-3.78
		s0.03-2.53,0.1-3.78c1.96-39.93,34.97-71.7,75.38-71.7c40.41,0,73.41,31.77,75.37,71.7c0.07,1.25,0.1,2.51,0.1,3.78
		S183.47,110.53,183.4,111.78z"/>
	<path class="st1" d="M178.01,98.13l-35.62-3.93c0-0.01,0-0.01,0-0.02c-2.3-12.43-9.64-22.73-19.46-27.99H150v-5h-35.07l-1.72-15
		h-9.82l-1.72,15H66.6v5h27.07c-9.82,5.26-17.16,15.56-19.46,27.99c0,0.01,0,0.01,0,0.02l-35.62,3.93
		c-0.38,2.88-0.58,5.81-0.59,8.78l4.95-2.09c7.28-3.08,15.5-3.08,22.78,0l4.14,1.75c1.27,0.54,2.56,0.98,3.87,1.32
		c0.07,0.02,0.15,0.04,0.22,0.06c0.33,0.09,0.67,0.17,1,0.24c4.15,0.92,8.45,0.92,12.6,0l2.7-0.73c0.74-0.31,1.48-0.58,2.2-0.89
		l4.14-1.75c3.22-1.36,6.62-2.12,10.04-2.27c0.45-0.03,0.91-0.04,1.36-0.04h0.6c0.45,0,0.91,0.01,1.36,0.04
		c3.42,0.15,6.82,0.91,10.04,2.27l4.14,1.75c0.72,0.31,1.46,0.58,2.2,0.89l2.7,0.73c4.15,0.92,8.45,0.92,12.6,0
		c0.33-0.07,0.67-0.15,1-0.24c0.07-0.02,0.15-0.04,0.22-0.06c1.31-0.34,2.6-0.78,3.87-1.32l4.14-1.75c7.28-3.08,15.5-3.08,22.78,0
		l4.95,2.09C178.59,103.94,178.39,101.01,178.01,98.13z M91.48,85.52c-2.65,4.6-6.22,7.52-7.96,6.51c-1.73-1-0.99-5.55,1.67-10.15
		c2.65-4.6,6.21-7.51,7.95-6.51C94.88,76.38,94.14,80.92,91.48,85.52z M133.08,92.03c-1.74,1.01-5.31-1.91-7.96-6.51
		c-2.66-4.6-3.4-9.14-1.66-10.15c1.74-1,5.3,1.91,7.95,6.51C134.07,86.48,134.81,91.03,133.08,92.03z"/>
	<g>
		<path class="st1" d="M178.29,115.7c-0.65,5.36-1.89,10.53-3.68,15.45l-0.77-0.33c-7.28-3.08-15.5-3.08-22.78,0l-4.14,1.75
			c-5.54,2.34-11.62,2.9-17.42,1.67c-1.82-0.37-3.62-0.93-5.36-1.67l-4.14-1.75c-7.28-3.08-15.5-3.08-22.78,0l-4.14,1.75
			c-2.04,0.86-4.16,1.49-6.31,1.86c-5.51,0.98-11.23,0.36-16.47-1.86l-4.14-1.75c-7.28-3.08-15.5-3.08-22.78,0l-0.75,0.32
			c-1.79-4.92-3.04-10.1-3.68-15.46c0.1-0.03,0.19-0.07,0.29-0.11l4.14-1.75c7.28-3.08,15.5-3.08,22.78,0l4.14,1.75
			c1.64,0.69,3.32,1.23,5.03,1.6c5.9,1.32,12.11,0.79,17.75-1.6l4.14-1.75c7.28-3.08,15.5-3.08,22.78,0l4.14,1.75
			c5.25,2.22,10.99,2.84,16.5,1.85c2.14-0.37,4.25-0.99,6.28-1.85l4.14-1.75c7.28-3.08,15.5-3.08,22.78,0L178.29,115.7z"/>
		<path class="st1" d="M170.83,139.74c-2.82,5.4-6.33,10.39-10.42,14.85c-3.19,0.21-6.35,0.96-9.35,2.23l-4.14,1.75
			c-7.28,3.08-15.5,3.08-22.78,0l-4.14-1.75c-7.28-3.08-15.5-3.08-22.78,0l-4.14,1.75c-7.28,3.08-15.5,3.08-22.78,0l-4.14-1.75
			c-2.99-1.27-6.14-2.01-9.33-2.23c-4.09-4.46-7.6-9.45-10.42-14.85c6.48-1.94,13.46-1.58,19.75,1.08l4.14,1.75
			c7.28,3.08,15.5,3.08,22.78,0l4.14-1.75c0.06-0.03,0.12-0.05,0.18-0.07c0.16-0.06,0.31-0.13,0.47-0.18
			c0.15-0.07,0.29-0.13,0.44-0.17c6.45-2.45,13.55-2.51,20.03-0.2c0.14,0.04,0.29,0.09,0.43,0.16c0.16,0.05,0.32,0.11,0.48,0.17
			c0.25,0.08,0.5,0.19,0.75,0.29l4.14,1.75c7.28,3.08,15.5,3.08,22.78,0l4.14-1.75C157.35,138.16,164.35,137.8,170.83,139.74z"/>
		<path class="st1" d="M136.02,171.87c-8.42,3.57-17.68,5.55-27.4,5.55c-9.72,0-18.98-1.98-27.4-5.55c4.03,0.07,8.07-0.7,11.86-2.3
			l4.14-1.75c7.28-3.08,15.5-3.08,22.78,0l4.14,1.75C127.94,171.18,131.98,171.94,136.02,171.87z"/>
		<path class="st1" d="M126.34,107.46c-0.81-0.26-1.61-0.56-2.39-0.89l-4.14-1.75c-3.16-1.34-6.49-2.1-9.85-2.27
			c3.42,0.15,6.82,0.91,10.04,2.27l4.14,1.75C124.86,106.88,125.6,107.15,126.34,107.46z"/>
		<path class="st1" d="M129.04,108.19c-0.42-0.09-0.84-0.2-1.26-0.31c-0.48-0.13-0.97-0.27-1.44-0.42L129.04,108.19z"/>
	</g>
</g>
</svg>
