<?xml version="1.0" standalone="no"?>
<!DOCTYPE svg PUBLIC "-//W3C//DTD SVG 20010904//EN"
 "http://www.w3.org/TR/2001/REC-SVG-20010904/DTD/svg10.dtd">
<svg version="1.0" xmlns="http://www.w3.org/2000/svg"
 width="300.000000pt" height="300.000000pt" viewBox="0 0 300.000000 300.000000"
 preserveAspectRatio="xMidYMid meet">
<metadata>
Created by potrace 1.11, written by Peter Selinger 2001-2013
</metadata>
<g transform="translate(0.000000,300.000000) scale(0.100000,-0.100000)"
fill="#000000" stroke="none">
<path d="M1370 2755 c-8 -2 -59 -11 -112 -21 -104 -18 -116 -28 -101 -75 5
-13 8 -31 7 -39 -1 -8 -2 -20 -3 -26 0 -6 -20 -16 -43 -23 -97 -29 -278 -133
-358 -207 l-25 -23 -44 34 c-24 19 -48 35 -54 35 -26 0 -179 -192 -239 -301
-48 -87 -110 -245 -106 -271 2 -15 18 -26 54 -40 51 -20 52 -20 44 -51 -27
-100 -33 -292 -14 -421 8 -49 12 -91 10 -95 -2 -3 -27 -15 -55 -26 -59 -23
-59 -18 0 -168 59 -150 139 -277 253 -401 l46 -50 37 30 c21 17 43 34 50 37 7
5 38 -13 75 -43 80 -65 190 -128 295 -170 46 -18 81 -35 79 -39 -2 -3 -7 -29
-11 -58 l-6 -51 33 -11 c157 -49 459 -50 631 -1 40 12 40 11 21 101 -4 24 0
27 68 54 130 51 259 128 340 203 l27 25 45 -36 c24 -21 49 -37 54 -37 6 0 38
32 71 71 108 125 181 245 234 385 55 144 56 138 -9 160 l-56 19 7 40 c19 110
22 159 20 260 -2 95 -7 135 -29 251 -4 17 5 23 50 39 30 10 54 24 54 32 0 51
-143 348 -190 393 -3 3 -17 22 -33 42 -15 20 -52 62 -82 93 l-56 56 -47 -39
-47 -40 -35 30 c-85 72 -217 146 -343 193 -34 13 -46 22 -43 34 3 9 7 35 11
58 7 47 13 43 -120 73 -46 11 -321 22 -355 15z m315 -314 c242 -55 440 -180
580 -367 190 -252 242 -594 137 -894 -99 -282 -332 -505 -622 -594 -495 -153
-1032 125 -1188 614 -104 327 -35 670 188 928 36 42 97 100 135 129 106 82
276 161 385 179 19 3 53 9 75 14 55 10 249 4 310 -9z"/>
<path d="M1439 2276 c0 -18 -11 -98 -18 -141 l-7 -40 -219 0 -220 0 -3 -32 -3
-33 168 -1 c161 0 167 -1 143 -17 -84 -57 -153 -152 -190 -260 -18 -53 -31
-76 -43 -78 -10 -1 -46 -5 -80 -9 -33 -3 -75 -8 -91 -10 -17 -2 -53 -6 -81 -9
-27 -3 -77 -8 -110 -12 -33 -3 -63 -11 -67 -17 -4 -7 -8 -33 -8 -59 l0 -47 60
25 c112 45 182 41 358 -21 107 -38 194 -35 296 10 118 52 219 54 338 6 149
-59 218 -59 368 2 103 41 215 43 308 4 l63 -26 -5 56 c-2 30 -6 56 -8 58 -2 1
-33 6 -70 9 -37 4 -77 9 -90 11 -49 8 -244 28 -260 27 -22 -1 -27 7 -56 92
-32 96 -95 182 -177 243 l-30 22 167 1 168 0 -4 23 c-3 12 -5 27 -5 32 -1 7
-75 10 -212 10 -115 0 -215 2 -221 6 -5 4 -12 26 -14 50 -3 24 -6 53 -9 64 -2
11 -4 32 -4 47 -1 27 -2 28 -66 27 -41 -1 -65 -5 -66 -13z m-119 -395 c0 -60
-90 -189 -124 -178 -21 7 -17 59 9 112 44 91 115 132 115 66z m479 -61 c26
-50 33 -72 27 -93 -9 -37 -23 -34 -72 18 -48 50 -78 127 -62 158 9 17 10 17
41 0 19 -12 44 -43 66 -83z"/>
<path d="M732 1444 c-29 -8 -66 -21 -83 -29 -25 -14 -29 -20 -24 -43 3 -15 7
-36 9 -47 13 -67 30 -115 40 -115 6 0 32 6 57 14 69 21 165 12 254 -24 150
-60 204 -58 398 13 94 34 174 31 284 -12 99 -39 112 -42 188 -42 56 -1 81 6
215 56 61 23 161 27 222 8 28 -8 54 -11 58 -6 9 11 28 78 36 128 3 22 7 44 7
49 1 5 -25 20 -58 34 -91 38 -194 35 -302 -7 -150 -59 -225 -58 -365 1 -62 25
-86 30 -158 31 -74 0 -96 -4 -175 -36 -140 -55 -207 -54 -359 7 -80 32 -167
39 -244 20z"/>
<path d="M783 1110 c-28 -3 -55 -9 -59 -12 -3 -4 5 -27 19 -51 33 -56 107
-150 113 -144 7 6 87 -16 151 -42 109 -43 199 -44 310 -2 43 16 97 35 120 41
49 12 155 5 192 -14 66 -33 159 -58 216 -57 77 1 91 4 183 39 42 16 93 32 113
36 29 5 43 17 80 69 50 68 79 114 79 121 0 9 -73 20 -115 18 -66 -3 -100 -11
-175 -42 -124 -51 -200 -48 -365 15 -51 20 -88 27 -135 27 -64 -1 -86 -6 -225
-56 -93 -33 -174 -29 -281 14 -42 17 -93 33 -113 36 -20 3 -40 6 -46 7 -5 2
-33 0 -62 -3z"/>
<path d="M1410 756 c-25 -8 -76 -25 -115 -40 -38 -14 -86 -26 -105 -27 -29 -1
-21 -6 52 -30 174 -57 357 -56 546 3 l67 21 -63 13 c-34 7 -93 25 -130 40 -80
32 -185 41 -252 20z"/>
</g>
</svg>
